<?xml version="1.0" encoding="UTF-8"?>
<svg xmlns="http://www.w3.org/2000/svg" xmlns:xlink="http://www.w3.org/1999/xlink" id="svg" version="1.1" width="400" height="400" viewBox="0, 0, 400,400">
  <g id="svgg">
    <path id="path0" d="M196.400 2.101 C 195.630 3.255,194.790 4.335,194.534 4.501 C 194.277 4.667,193.514 5.702,192.837 6.801 C 192.161 7.900,191.456 8.800,191.271 8.800 C 191.086 8.800,190.682 9.295,190.373 9.900 C 190.064 10.505,188.773 12.357,187.505 14.017 C 186.237 15.676,185.197 17.206,185.193 17.417 C 185.189 17.627,184.738 18.225,184.191 18.744 C 183.644 19.263,182.918 20.274,182.578 20.990 C 182.238 21.706,181.654 22.631,181.280 23.046 C 180.301 24.132,178.400 27.115,178.400 27.567 C 178.400 27.778,177.860 28.542,177.200 29.264 C 176.540 29.987,176.000 30.767,176.000 30.998 C 176.000 31.229,175.350 32.404,174.556 33.609 C 173.762 34.814,172.569 36.880,171.905 38.200 C 171.240 39.520,170.566 40.690,170.405 40.800 C 170.245 40.910,169.428 42.440,168.590 44.200 C 167.753 45.960,166.960 47.490,166.829 47.600 C 166.699 47.710,166.167 48.790,165.648 50.000 C 165.129 51.210,164.108 53.460,163.379 55.000 C 162.650 56.540,161.655 58.970,161.167 60.400 C 160.680 61.830,160.149 63.090,159.987 63.200 C 159.652 63.427,156.800 72.876,156.800 73.757 C 156.800 74.074,156.629 74.393,156.420 74.467 C 156.016 74.609,154.204 83.068,153.758 86.900 C 153.459 89.463,153.170 89.684,152.119 88.153 C 150.544 85.861,140.724 75.708,137.360 72.895 C 136.502 72.178,134.990 70.905,134.000 70.067 C 133.010 69.229,131.564 68.160,130.786 67.692 C 130.009 67.224,128.839 66.382,128.186 65.820 C 127.534 65.258,126.258 64.448,125.350 64.020 C 124.443 63.593,123.453 63.006,123.150 62.717 C 122.848 62.428,121.340 61.567,119.800 60.804 C 118.260 60.040,116.906 59.289,116.792 59.133 C 116.538 58.788,113.252 57.354,110.800 56.519 C 109.810 56.182,108.910 55.768,108.800 55.600 C 108.605 55.302,102.095 53.086,99.900 52.571 C 99.295 52.429,98.800 52.173,98.800 52.002 C 98.800 51.831,98.305 51.605,97.700 51.501 C 94.777 50.995,86.922 49.128,86.321 48.795 C 85.947 48.588,81.717 47.747,76.921 46.926 C 72.124 46.105,68.140 45.291,68.067 45.117 C 67.993 44.942,67.543 44.799,67.067 44.797 C 65.724 44.793,53.892 42.066,53.631 41.700 C 53.504 41.522,52.051 40.841,50.402 40.188 C 48.753 39.535,47.127 38.723,46.787 38.385 C 46.448 38.047,45.502 37.358,44.685 36.853 C 43.868 36.348,42.975 35.634,42.700 35.267 C 42.425 34.900,41.355 33.921,40.322 33.091 C 38.507 31.633,37.943 31.131,34.487 27.900 C 33.604 27.075,32.747 26.400,32.582 26.400 C 32.043 26.400,34.088 47.767,34.784 49.400 C 34.972 49.840,35.432 52.450,35.807 55.200 C 36.814 62.588,37.965 69.291,38.384 70.200 C 38.586 70.640,39.315 73.786,40.003 77.191 C 40.691 80.596,41.399 83.566,41.576 83.791 C 41.754 84.016,42.565 86.810,43.379 90.000 C 44.193 93.190,45.026 95.860,45.229 95.933 C 45.433 96.007,45.600 96.278,45.600 96.536 C 45.600 97.286,48.352 105.660,48.760 106.153 C 48.964 106.399,49.689 108.211,50.371 110.180 C 51.053 112.149,51.755 113.859,51.930 113.980 C 52.106 114.101,52.679 115.280,53.203 116.600 C 54.282 119.319,58.661 128.048,59.112 128.381 C 59.275 128.502,59.919 129.628,60.543 130.884 C 61.168 132.140,62.111 133.670,62.639 134.284 C 63.167 134.898,63.599 135.539,63.600 135.709 C 63.600 136.145,65.626 139.208,66.700 140.396 C 67.195 140.943,67.876 141.973,68.213 142.683 C 68.550 143.393,69.057 144.115,69.340 144.287 C 69.623 144.459,70.434 145.452,71.143 146.494 C 71.851 147.536,72.783 148.577,73.215 148.808 C 73.647 149.039,74.000 149.464,74.000 149.753 C 74.000 150.041,74.765 150.989,75.700 151.859 C 76.635 152.729,78.052 154.151,78.848 155.020 C 79.645 155.889,81.715 157.902,83.448 159.494 C 85.182 161.085,87.117 162.885,87.750 163.494 L 88.900 164.600 87.550 164.714 C 84.922 164.936,76.626 166.446,76.216 166.777 C 75.987 166.961,74.000 167.599,71.800 168.195 C 69.600 168.790,66.900 169.700,65.800 170.216 C 64.700 170.733,62.450 171.730,60.800 172.431 C 59.150 173.133,57.704 173.856,57.586 174.038 C 57.468 174.220,56.666 174.664,55.804 175.024 C 54.942 175.384,53.022 176.471,51.539 177.440 C 50.056 178.408,48.692 179.200,48.507 179.200 C 48.323 179.200,47.638 179.649,46.986 180.198 C 46.334 180.748,44.720 181.916,43.400 182.795 C 42.080 183.675,40.010 185.054,38.800 185.861 C 37.590 186.668,36.459 187.564,36.287 187.852 C 36.115 188.139,35.393 188.650,34.683 188.987 C 33.973 189.324,32.943 190.005,32.396 190.500 C 31.193 191.587,28.142 193.600,27.698 193.600 C 27.522 193.600,26.787 194.140,26.064 194.800 C 25.342 195.460,24.592 196.000,24.399 196.000 C 24.206 196.000,22.488 196.734,20.583 197.631 C 17.146 199.249,17.050 199.268,8.659 200.017 C 4.006 200.432,0.155 200.779,0.100 200.786 C -0.897 200.924,2.415 204.400,3.543 204.400 C 3.779 204.400,4.152 204.737,4.372 205.148 C 4.592 205.559,5.398 206.193,6.163 206.556 C 6.928 206.919,8.091 207.752,8.746 208.408 C 9.402 209.064,10.062 209.600,10.213 209.600 C 10.363 209.600,11.620 210.502,13.005 211.604 C 14.389 212.706,16.033 213.872,16.656 214.196 C 17.280 214.519,18.333 215.244,18.995 215.806 C 20.701 217.254,27.311 221.600,27.807 221.600 C 28.035 221.600,28.813 222.140,29.536 222.800 C 30.258 223.460,31.031 224.000,31.253 224.000 C 31.474 224.000,32.430 224.533,33.377 225.184 C 35.557 226.684,40.028 229.143,44.400 231.247 C 46.270 232.147,47.890 233.010,48.000 233.164 C 48.110 233.319,49.640 234.064,51.400 234.820 C 53.160 235.575,54.690 236.298,54.800 236.424 C 55.071 236.737,58.077 237.917,60.982 238.853 C 62.293 239.274,63.463 239.769,63.582 239.952 C 63.779 240.253,70.428 242.311,73.396 242.990 C 74.054 243.140,74.684 243.405,74.796 243.578 C 74.994 243.883,83.444 245.668,87.300 246.219 C 89.658 246.556,89.668 246.840,87.379 248.414 C 83.247 251.257,72.823 261.777,70.734 265.212 C 70.337 265.865,69.823 266.400,69.593 266.400 C 69.363 266.400,69.045 266.715,68.887 267.100 C 68.527 267.978,66.411 271.165,65.562 272.109 C 65.211 272.499,64.408 273.804,63.777 275.009 C 63.147 276.214,62.516 277.200,62.375 277.200 C 62.234 277.200,61.521 278.505,60.792 280.100 C 60.062 281.695,59.313 283.102,59.127 283.227 C 58.941 283.352,58.137 285.062,57.339 287.027 C 56.541 288.992,55.764 290.690,55.614 290.800 C 55.386 290.966,53.674 296.153,52.577 300.000 C 52.420 300.550,52.163 301.090,52.005 301.200 C 51.683 301.424,49.819 308.820,49.384 311.600 C 49.229 312.590,48.964 313.490,48.796 313.600 C 48.491 313.799,45.600 329.743,45.600 331.223 C 45.600 331.651,45.459 332.000,45.287 332.000 C 45.115 332.000,44.738 333.305,44.451 334.900 C 43.486 340.246,41.959 346.098,41.377 346.680 C 41.060 346.997,40.801 347.469,40.801 347.729 C 40.803 348.514,38.704 353.200,38.350 353.200 C 38.169 353.200,37.761 353.695,37.444 354.300 C 37.127 354.905,35.778 356.570,34.447 358.000 C 33.116 359.430,32.021 360.705,32.014 360.834 C 32.001 361.045,30.126 363.122,27.276 366.083 C 26.702 366.679,26.359 367.293,26.514 367.447 C 26.849 367.782,48.111 365.596,48.400 365.197 C 48.510 365.045,49.680 364.799,51.000 364.650 C 56.059 364.079,69.037 361.977,69.800 361.605 C 70.240 361.391,73.390 360.655,76.800 359.969 C 80.210 359.284,83.090 358.594,83.200 358.437 C 83.310 358.279,86.096 357.476,89.390 356.653 C 92.685 355.829,95.475 355.009,95.590 354.831 C 95.706 354.652,97.510 354.021,99.600 353.428 C 101.690 352.835,104.120 352.010,105.000 351.595 C 105.880 351.180,108.098 350.291,109.929 349.619 C 111.760 348.948,113.528 348.129,113.858 347.799 C 114.187 347.470,114.698 347.200,114.991 347.200 C 115.630 347.200,120.893 344.876,121.191 344.462 C 121.306 344.303,122.927 343.492,124.793 342.660 C 126.659 341.828,128.279 341.002,128.393 340.825 C 128.507 340.648,129.770 339.918,131.200 339.203 C 132.630 338.488,134.070 337.655,134.400 337.351 C 134.730 337.048,136.170 336.025,137.600 335.078 C 142.493 331.839,144.200 330.633,144.331 330.324 C 144.403 330.154,145.252 329.481,146.219 328.829 C 149.046 326.921,159.276 317.073,163.040 312.636 L 164.681 310.702 164.963 313.819 C 165.283 317.344,166.354 322.898,166.772 323.200 C 166.925 323.310,167.286 324.480,167.575 325.800 C 168.186 328.595,169.981 334.109,170.374 334.400 C 170.523 334.510,171.243 336.130,171.974 338.000 C 172.705 339.870,173.530 341.670,173.807 342.000 C 174.084 342.330,174.864 343.708,175.542 345.062 C 176.219 346.416,176.914 347.586,177.087 347.662 C 177.259 347.738,178.009 348.970,178.754 350.400 C 179.499 351.830,180.309 353.180,180.555 353.400 C 180.800 353.620,181.519 354.610,182.152 355.600 C 182.785 356.590,184.000 358.317,184.851 359.437 C 185.703 360.557,186.400 361.649,186.400 361.862 C 186.400 362.076,186.940 362.768,187.600 363.400 C 188.260 364.032,188.800 364.708,188.800 364.902 C 188.800 365.250,190.534 367.707,191.500 368.728 C 191.775 369.019,192.479 370.099,193.066 371.128 C 193.653 372.158,194.443 373.360,194.821 373.800 C 195.584 374.686,197.600 378.830,197.600 379.510 C 197.600 379.748,197.875 380.217,198.210 380.553 C 199.002 381.344,199.469 384.094,199.986 391.000 C 200.735 401.009,200.931 401.477,203.074 398.366 C 203.693 397.467,204.711 396.162,205.335 395.466 C 205.959 394.770,206.589 393.900,206.735 393.534 C 206.881 393.167,207.487 392.267,208.082 391.534 C 209.963 389.215,214.400 383.108,214.400 382.838 C 214.400 382.695,214.933 381.994,215.585 381.281 C 216.237 380.567,217.056 379.381,217.405 378.645 C 217.754 377.910,218.346 376.969,218.720 376.554 C 219.618 375.559,221.600 372.500,221.601 372.109 C 221.601 371.939,222.141 371.170,222.800 370.400 C 223.459 369.630,223.999 368.863,223.999 368.696 C 224.000 368.528,224.862 366.998,225.915 365.296 C 226.969 363.593,228.166 361.435,228.576 360.500 C 228.986 359.565,229.448 358.800,229.603 358.800 C 229.758 358.800,230.553 357.318,231.369 355.507 C 232.186 353.696,232.978 352.121,233.131 352.007 C 233.284 351.893,233.842 350.810,234.372 349.600 C 234.902 348.390,235.911 346.140,236.615 344.600 C 237.318 343.060,238.322 340.540,238.847 339.000 C 239.371 337.460,239.934 336.100,240.098 335.978 C 240.420 335.737,242.176 330.116,242.837 327.210 C 243.061 326.226,243.390 325.326,243.568 325.210 C 243.908 324.990,245.732 316.179,246.217 312.418 L 246.498 310.236 247.637 311.618 C 248.264 312.378,249.367 313.706,250.088 314.570 C 251.749 316.557,260.575 325.374,262.641 327.109 C 266.353 330.227,267.507 331.136,269.272 332.332 C 270.302 333.029,271.317 333.600,271.529 333.600 C 271.741 333.600,272.003 333.830,272.111 334.111 C 272.218 334.392,273.273 335.143,274.453 335.780 C 275.634 336.416,276.690 337.062,276.800 337.216 C 276.910 337.369,278.350 338.190,280.000 339.041 C 281.650 339.892,283.096 340.717,283.212 340.875 C 283.329 341.034,285.129 341.821,287.212 342.625 C 289.296 343.428,291.090 344.215,291.200 344.373 C 291.366 344.611,296.449 346.296,300.400 347.423 C 300.950 347.580,301.490 347.841,301.600 348.005 C 301.710 348.168,304.410 348.874,307.600 349.573 C 310.790 350.273,313.760 351.011,314.200 351.214 C 314.916 351.544,320.723 352.641,329.200 354.047 C 330.850 354.321,332.290 354.657,332.400 354.796 C 332.510 354.934,333.860 355.270,335.400 355.543 C 339.816 356.325,346.187 358.001,346.333 358.419 C 346.407 358.629,346.691 358.800,346.965 358.800 C 347.730 358.800,351.966 360.593,352.726 361.239 C 353.097 361.554,354.030 362.246,354.800 362.778 C 355.570 363.309,357.015 364.476,358.010 365.372 C 359.006 366.267,360.967 367.990,362.368 369.200 C 363.769 370.410,365.282 371.805,365.730 372.300 C 366.703 373.375,367.599 373.471,367.604 372.500 C 367.614 370.732,365.433 351.777,365.200 351.600 C 365.055 351.490,364.721 349.600,364.457 347.400 C 363.743 341.427,362.041 331.112,361.621 330.200 C 361.417 329.760,360.680 326.610,359.982 323.200 C 359.284 319.790,358.594 316.910,358.449 316.800 C 358.303 316.690,357.505 313.900,356.674 310.600 C 355.844 307.300,354.992 304.540,354.782 304.467 C 354.572 304.393,354.400 304.075,354.400 303.759 C 354.400 302.933,351.558 294.238,351.210 294.000 C 351.050 293.890,350.410 292.296,349.789 290.459 C 349.168 288.621,348.422 286.879,348.130 286.587 C 347.839 286.296,347.600 285.869,347.600 285.639 C 347.600 285.409,347.254 284.452,346.831 283.511 C 346.408 282.570,345.840 281.200,345.568 280.466 C 345.297 279.732,344.878 278.922,344.637 278.666 C 344.397 278.410,343.570 276.866,342.800 275.235 C 342.030 273.605,341.209 272.075,340.976 271.835 C 340.742 271.596,340.026 270.324,339.384 269.008 C 338.742 267.693,337.890 266.290,337.492 265.892 C 337.094 265.494,336.613 264.770,336.423 264.284 C 336.054 263.338,331.737 257.128,330.527 255.803 C 330.127 255.365,329.377 254.375,328.860 253.603 C 328.343 252.831,327.488 251.750,326.961 251.200 C 326.434 250.650,324.877 248.955,323.501 247.434 C 322.126 245.913,320.030 243.753,318.843 242.634 C 317.657 241.515,316.053 239.925,315.279 239.100 C 314.505 238.275,313.670 237.600,313.425 237.600 C 313.179 237.600,312.521 237.079,311.963 236.443 L 310.948 235.287 313.374 235.025 C 316.734 234.662,322.558 233.570,322.800 233.258 C 322.910 233.116,324.957 232.500,327.349 231.888 C 329.741 231.277,332.621 230.342,333.749 229.810 C 334.877 229.279,337.150 228.270,338.800 227.569 C 340.450 226.867,341.890 226.161,342.000 226.000 C 342.110 225.839,343.235 225.220,344.501 224.624 C 345.766 224.029,347.033 223.329,347.316 223.071 C 347.881 222.554,348.839 221.982,351.579 220.525 C 352.575 219.996,353.535 219.301,353.714 218.981 C 353.893 218.662,354.240 218.400,354.484 218.400 C 354.729 218.400,356.212 217.434,357.780 216.254 C 359.349 215.073,361.165 213.821,361.816 213.471 C 362.467 213.122,363.424 212.377,363.942 211.818 C 364.460 211.258,365.095 210.800,365.353 210.800 C 365.611 210.800,366.378 210.305,367.057 209.700 C 368.392 208.512,368.855 208.187,371.600 206.518 C 372.590 205.915,373.749 205.103,374.175 204.711 C 374.602 204.320,375.104 204.000,375.292 204.000 C 375.480 204.000,377.072 203.295,378.830 202.433 C 380.589 201.571,382.696 200.757,383.514 200.624 C 384.843 200.409,398.257 199.218,399.500 199.205 C 400.485 199.195,399.972 198.045,398.442 196.834 C 397.586 196.155,396.762 195.600,396.612 195.600 C 396.461 195.600,395.781 195.043,395.100 194.361 C 394.419 193.680,393.548 193.005,393.165 192.861 C 392.782 192.718,391.868 192.104,391.134 191.499 C 388.665 189.460,383.282 185.600,382.909 185.600 C 382.706 185.600,382.116 185.149,381.598 184.598 C 381.080 184.046,379.698 183.055,378.528 182.394 C 377.358 181.734,376.400 181.015,376.400 180.797 C 376.400 180.578,376.242 180.400,376.048 180.400 C 375.591 180.400,371.115 177.705,370.824 177.254 C 370.701 177.063,369.790 176.499,368.800 175.999 C 367.810 175.499,366.280 174.603,365.400 174.007 C 364.520 173.410,362.812 172.431,361.604 171.830 C 360.396 171.228,359.316 170.616,359.204 170.468 C 358.620 169.701,343.350 162.533,339.400 161.173 C 337.860 160.643,336.405 160.027,336.167 159.804 C 335.928 159.582,333.498 158.776,330.767 158.013 C 328.035 157.249,325.710 156.502,325.600 156.352 C 325.378 156.048,316.525 154.192,313.400 153.795 C 310.292 153.399,310.226 153.329,311.733 152.005 C 312.488 151.342,313.285 150.800,313.505 150.800 C 313.725 150.800,314.386 150.170,314.973 149.400 C 315.560 148.630,316.230 148.000,316.462 148.000 C 316.986 148.000,325.600 139.401,325.600 138.877 C 325.600 138.667,326.230 138.014,327.000 137.427 C 327.770 136.840,328.401 136.143,328.402 135.880 C 328.403 135.616,328.963 134.803,329.646 134.074 C 331.012 132.617,333.600 128.905,333.600 128.403 C 333.600 128.228,333.840 127.994,334.133 127.881 C 334.426 127.769,335.175 126.669,335.798 125.438 C 336.421 124.207,337.056 123.200,337.210 123.200 C 337.363 123.200,338.166 121.715,338.993 119.900 C 339.821 118.085,340.632 116.510,340.796 116.400 C 340.959 116.290,341.667 114.850,342.369 113.200 C 343.070 111.550,344.062 109.300,344.573 108.200 C 345.085 107.100,345.999 104.490,346.606 102.400 C 347.212 100.310,347.829 98.510,347.976 98.400 C 348.253 98.193,349.551 92.960,350.457 88.400 C 350.741 86.970,351.086 85.710,351.224 85.600 C 351.533 85.353,351.718 84.415,353.229 75.400 C 353.893 71.440,354.599 67.840,354.799 67.400 C 354.998 66.960,355.447 65.070,355.796 63.200 C 356.572 59.042,357.995 53.472,358.351 53.200 C 358.494 53.090,359.115 51.756,359.729 50.235 C 361.100 46.842,361.489 46.317,368.650 38.183 C 373.918 32.199,373.811 32.400,371.700 32.400 C 369.179 32.400,351.453 34.393,350.600 34.773 C 350.160 34.969,348.180 35.333,346.200 35.582 C 340.430 36.307,330.236 38.057,329.800 38.397 C 329.580 38.569,328.590 38.840,327.600 38.999 C 324.409 39.511,317.024 41.185,316.200 41.583 C 315.760 41.795,312.882 42.620,309.804 43.416 C 306.726 44.212,304.116 44.999,304.004 45.164 C 303.892 45.329,301.553 46.136,298.807 46.958 C 296.062 47.780,293.722 48.594,293.607 48.767 C 293.493 48.940,291.896 49.590,290.059 50.211 C 288.221 50.832,286.502 51.555,286.240 51.817 C 285.977 52.080,285.321 52.428,284.781 52.592 C 283.319 53.035,271.690 58.746,271.534 59.097 C 271.460 59.264,270.185 59.993,268.700 60.717 C 267.215 61.441,266.000 62.187,266.000 62.373 C 266.000 62.559,265.234 63.072,264.299 63.512 C 263.363 63.952,261.493 65.141,260.144 66.156 C 258.794 67.170,257.555 68.000,257.389 68.000 C 257.087 68.000,254.814 69.864,252.144 72.300 C 251.361 73.015,250.579 73.600,250.407 73.600 C 250.234 73.600,249.443 74.320,248.648 75.200 C 247.853 76.080,247.062 76.800,246.892 76.800 C 246.499 76.800,240.400 82.916,240.400 83.310 C 240.400 83.471,239.680 84.253,238.800 85.048 C 237.920 85.843,237.200 86.721,237.200 87.001 C 237.200 87.280,236.750 87.803,236.200 88.163 C 235.229 88.799,235.200 88.790,235.200 87.859 C 235.200 86.324,233.548 77.020,233.236 76.800 C 233.080 76.690,232.436 74.631,231.804 72.224 C 231.173 69.817,230.272 67.117,229.803 66.224 C 229.334 65.331,228.356 63.112,227.628 61.294 C 226.901 59.476,226.137 57.885,225.931 57.758 C 225.726 57.630,225.145 56.594,224.641 55.454 C 224.137 54.314,223.471 53.114,223.162 52.787 C 222.853 52.461,222.060 51.147,221.400 49.868 C 220.740 48.589,219.836 47.150,219.391 46.671 C 218.947 46.192,218.347 45.335,218.060 44.767 C 217.772 44.198,216.657 42.578,215.583 41.167 C 214.508 39.755,213.623 38.410,213.615 38.178 C 213.607 37.947,212.970 37.146,212.200 36.400 C 211.430 35.654,210.800 34.827,210.800 34.564 C 210.800 34.300,210.260 33.507,209.600 32.800 C 208.940 32.093,208.400 31.432,208.400 31.330 C 208.400 31.228,207.860 30.359,207.200 29.400 C 206.540 28.441,206.000 27.472,206.000 27.248 C 206.000 27.023,205.743 26.696,205.429 26.520 C 204.755 26.142,200.990 18.334,200.646 16.600 C 200.449 15.605,199.200 1.597,199.200 0.376 C 199.200 -0.718,197.638 0.244,196.400 2.101 M194.487 31.485 C 195.484 33.198,198.807 38.110,201.872 42.400 C 210.981 55.150,213.611 59.334,216.964 66.416 C 228.080 89.890,225.918 118.624,210.484 152.533 C 209.155 155.454,208.989 155.650,208.029 155.432 C 207.463 155.303,204.998 155.082,202.551 154.942 L 198.102 154.686 197.850 150.643 C 196.592 130.433,196.250 116.987,196.267 88.477 C 196.279 69.989,196.143 58.497,195.915 58.725 C 195.050 59.590,191.405 70.224,189.804 76.551 C 183.991 99.532,183.585 128.994,188.761 152.224 C 189.197 154.180,189.519 155.811,189.477 155.848 C 189.112 156.171,183.506 157.589,183.240 157.425 C 182.764 157.131,178.496 150.837,176.305 147.200 C 159.472 119.246,159.881 88.490,177.560 52.800 C 181.637 44.570,191.756 27.802,192.403 28.202 C 192.552 28.294,193.490 29.771,194.487 31.485 M347.994 47.300 C 347.991 47.355,347.353 49.290,346.575 51.600 C 345.725 54.126,343.984 61.699,342.207 70.600 C 334.227 110.573,324.862 127.564,301.000 145.360 C 291.608 152.364,291.481 152.427,285.003 153.253 C 269.295 155.256,254.442 161.069,240.453 170.689 L 236.706 173.265 234.053 170.372 C 232.594 168.781,231.349 167.353,231.287 167.199 C 231.224 167.046,233.282 164.598,235.859 161.760 C 238.436 158.922,241.356 155.700,242.347 154.600 C 260.603 134.355,289.659 106.325,316.523 83.046 C 323.293 77.179,323.363 77.040,318.549 79.031 C 286.407 92.320,244.948 129.181,227.143 160.300 C 225.724 162.779,225.872 162.750,223.008 161.100 C 220.213 159.490,220.213 158.815,223.009 152.182 C 227.922 140.527,231.607 128.571,233.544 118.000 C 234.788 111.207,235.280 109.983,239.091 104.200 C 258.530 74.699,294.050 55.780,345.600 47.470 C 346.947 47.253,348.001 47.178,347.994 47.300 M52.312 53.584 C 56.137 54.765,63.381 56.335,76.400 58.804 C 111.192 65.404,131.649 78.212,149.372 104.494 L 152.538 109.189 153.247 114.851 C 155.119 129.790,160.481 143.862,169.596 157.750 C 171.598 160.801,173.165 163.369,173.077 163.456 C 172.989 163.544,171.591 164.767,169.969 166.173 L 167.021 168.731 165.410 167.304 C 137.037 142.166,105.577 109.912,79.502 79.224 C 72.355 70.812,86.727 98.316,97.342 113.362 C 112.585 134.970,135.313 156.629,158.339 171.493 C 162.680 174.295,162.644 174.219,161.000 177.109 C 159.514 179.720,158.977 179.698,151.852 176.731 C 139.142 171.440,128.418 168.182,117.278 166.227 C 112.255 165.346,111.253 165.034,108.695 163.549 C 78.214 145.851,57.961 111.511,48.840 62.058 C 47.081 52.519,47.009 51.841,47.780 52.137 C 48.135 52.273,50.174 52.924,52.312 53.584 M306.800 164.577 C 326.161 167.162,347.493 175.974,368.939 190.245 L 372.077 192.334 368.939 194.166 C 367.212 195.173,363.280 197.791,360.200 199.984 C 341.754 213.113,335.497 216.752,325.497 220.161 C 303.997 227.491,276.992 224.143,247.458 210.487 L 244.317 209.035 244.568 207.417 C 244.706 206.528,244.930 204.067,245.065 201.948 L 245.311 198.096 249.556 197.840 C 271.128 196.539,282.080 196.259,311.120 196.269 C 327.905 196.275,341.495 196.137,341.320 195.963 C 341.144 195.789,338.660 194.753,335.800 193.660 C 314.337 185.464,285.395 183.011,257.618 187.035 C 253.778 187.591,249.188 188.384,247.418 188.798 C 243.703 189.666,243.935 189.797,243.025 186.323 C 242.183 183.108,242.038 183.379,246.113 180.566 C 265.369 167.272,286.094 161.811,306.800 164.577 M113.400 176.983 C 124.572 178.724,139.724 183.556,152.942 189.594 C 155.513 190.768,155.669 190.913,155.443 191.923 C 155.311 192.515,155.084 194.951,154.939 197.336 C 154.784 199.904,154.498 201.730,154.238 201.813 C 151.879 202.571,122.855 203.346,92.400 203.465 C 73.590 203.539,58.110 203.608,58.000 203.618 C 57.890 203.629,59.510 204.360,61.600 205.243 C 85.173 215.204,122.705 217.663,152.096 211.172 C 154.018 210.747,155.666 210.400,155.757 210.400 C 155.950 210.400,157.600 215.723,157.600 216.345 C 157.600 216.978,148.036 223.213,142.800 225.994 C 110.220 243.299,74.904 238.158,31.022 209.724 C 27.388 207.369,27.335 207.803,31.553 205.316 C 33.497 204.170,38.577 200.740,42.843 197.694 C 63.111 183.221,72.590 178.750,87.600 176.584 C 92.804 175.834,107.476 176.060,113.400 176.983 M248.558 223.375 C 263.592 229.385,275.093 232.731,285.800 234.210 C 287.906 234.501,291.139 236.109,295.811 239.190 C 321.485 256.118,338.771 284.617,348.588 326.200 C 350.253 333.250,352.949 347.585,352.664 347.869 C 352.595 347.938,350.728 347.384,348.513 346.638 C 344.672 345.344,336.156 343.462,322.200 340.820 C 288.144 334.375,267.502 321.067,249.580 294.002 C 247.278 290.526,247.244 290.431,246.795 286.341 C 245.012 270.072,239.149 254.867,228.976 240.132 L 226.444 236.463 227.522 235.758 C 228.115 235.370,229.539 234.165,230.687 233.080 L 232.775 231.108 234.087 232.203 C 254.207 248.989,295.155 290.962,320.498 320.776 C 322.589 323.237,322.649 322.716,320.775 318.367 C 306.362 284.916,276.124 250.677,240.936 227.965 L 237.271 225.600 238.696 223.200 C 240.511 220.142,240.468 220.141,248.558 223.375 M166.905 230.654 L 168.881 232.708 167.341 234.446 C 143.129 261.770,113.063 291.222,82.491 317.564 C 76.366 322.842,76.334 322.918,81.051 320.974 C 113.326 307.674,151.221 274.266,171.994 240.800 C 173.155 238.930,174.149 237.347,174.204 237.282 C 174.259 237.217,175.403 237.847,176.747 238.682 C 179.689 240.509,179.705 240.896,177.110 247.135 C 171.290 261.125,167.115 275.167,165.793 285.200 C 165.451 287.796,164.028 290.756,160.721 295.754 C 143.612 321.603,115.553 338.653,73.800 348.571 C 66.531 350.297,52.391 352.924,52.073 352.606 C 51.990 352.523,52.564 350.508,53.349 348.127 C 54.745 343.899,56.297 336.913,58.802 323.600 C 65.337 288.857,78.012 268.590,104.532 250.480 C 108.971 247.449,109.408 247.243,111.925 246.998 C 128.900 245.344,144.771 239.358,159.994 228.870 L 163.388 226.531 164.159 227.566 C 164.583 228.135,165.819 229.524,166.905 230.654 M220.044 247.200 C 243.632 282.340,240.988 319.928,211.710 365.700 C 207.284 372.619,207.755 372.409,205.438 368.500 C 204.427 366.795,201.802 362.880,199.604 359.800 C 187.610 342.990,183.104 335.203,179.816 325.602 C 172.419 304.008,175.726 277.032,189.397 247.435 L 190.846 244.298 192.723 244.558 C 193.755 244.701,196.191 244.932,198.137 245.071 C 200.127 245.214,201.734 245.516,201.813 245.762 C 202.633 248.323,203.380 277.838,203.389 308.100 C 203.395 326.525,203.506 341.600,203.636 341.600 C 203.968 341.600,204.629 340.085,206.604 334.800 C 215.469 311.080,217.328 275.980,211.205 247.928 C 210.287 243.719,210.173 244.001,213.133 243.140 C 216.634 242.121,216.634 242.121,220.044 247.200 " stroke="none" fill="#241c24" fill-rule="evenodd"></path>
    <path id="path1" d="M188.517 33.717 C 162.156 75.145,157.114 109.516,172.805 140.821 C 175.431 146.060,182.150 156.751,183.240 157.425 C 183.506 157.589,189.112 156.171,189.477 155.848 C 189.519 155.811,189.197 154.180,188.761 152.224 C 183.585 128.994,183.991 99.532,189.804 76.551 C 191.405 70.224,195.050 59.590,195.915 58.725 C 196.143 58.497,196.279 69.989,196.267 88.477 C 196.250 116.987,196.592 130.433,197.850 150.643 L 198.102 154.686 202.551 154.942 C 204.998 155.082,207.463 155.303,208.029 155.432 C 208.989 155.650,209.155 155.454,210.484 152.533 C 225.918 118.624,228.080 89.890,216.964 66.416 C 213.611 59.334,210.981 55.150,201.872 42.400 C 198.807 38.110,195.484 33.198,194.487 31.485 C 193.490 29.771,192.552 28.294,192.403 28.202 C 192.254 28.110,190.505 30.592,188.517 33.717 M345.600 47.470 C 294.050 55.780,258.530 74.699,239.091 104.200 C 235.280 109.983,234.788 111.207,233.544 118.000 C 231.607 128.571,227.922 140.527,223.009 152.182 C 220.213 158.815,220.213 159.490,223.008 161.100 C 225.872 162.750,225.724 162.779,227.143 160.300 C 244.948 129.181,286.407 92.320,318.549 79.031 C 323.363 77.040,323.293 77.179,316.523 83.046 C 289.659 106.325,260.603 134.355,242.347 154.600 C 241.356 155.700,238.436 158.922,235.859 161.760 C 233.282 164.598,231.224 167.046,231.287 167.199 C 231.349 167.353,232.594 168.781,234.053 170.372 L 236.706 173.265 240.453 170.689 C 254.442 161.069,269.295 155.256,285.003 153.253 C 291.481 152.427,291.608 152.364,301.000 145.360 C 324.862 127.564,334.227 110.573,342.207 70.600 C 343.984 61.699,345.725 54.126,346.575 51.600 C 347.353 49.290,347.991 47.355,347.994 47.300 C 348.001 47.178,346.947 47.253,345.600 47.470 M47.410 53.845 C 53.620 97.840,71.505 134.939,96.089 154.816 C 105.690 162.579,110.139 164.975,117.278 166.227 C 128.418 168.182,139.142 171.440,151.852 176.731 C 158.977 179.698,159.514 179.720,161.000 177.109 C 162.644 174.219,162.680 174.295,158.339 171.493 C 135.313 156.629,112.585 134.970,97.342 113.362 C 89.787 102.654,83.772 92.270,79.783 83.051 C 77.325 77.370,77.268 76.595,79.502 79.224 C 105.577 109.912,137.037 142.166,165.410 167.304 L 167.021 168.731 169.969 166.173 C 171.591 164.767,172.989 163.544,173.077 163.456 C 173.165 163.369,171.598 160.801,169.596 157.750 C 160.481 143.862,155.119 129.790,153.247 114.851 L 152.538 109.189 149.372 104.494 C 131.649 78.212,111.192 65.404,76.400 58.804 C 60.187 55.729,52.434 53.923,47.780 52.137 C 47.219 51.922,47.170 52.145,47.410 53.845 M285.200 164.599 C 271.222 166.703,258.906 171.734,246.113 180.566 C 242.038 183.379,242.183 183.108,243.025 186.323 C 243.935 189.797,243.703 189.666,247.418 188.798 C 270.045 183.511,301.361 184.021,324.399 190.051 C 330.058 191.533,340.546 195.197,341.320 195.963 C 341.495 196.137,327.905 196.275,311.120 196.269 C 282.080 196.259,271.128 196.539,249.556 197.840 L 245.311 198.096 245.065 201.948 C 244.930 204.067,244.706 206.528,244.568 207.417 L 244.317 209.035 247.458 210.487 C 276.992 224.143,303.997 227.491,325.497 220.161 C 335.497 216.752,341.754 213.113,360.200 199.984 C 363.280 197.791,367.212 195.173,368.939 194.166 L 372.077 192.334 368.939 190.245 C 338.958 170.294,308.778 161.051,285.200 164.599 M87.600 176.584 C 72.590 178.750,63.111 183.221,42.843 197.694 C 38.577 200.740,33.497 204.170,31.553 205.316 C 27.335 207.803,27.388 207.369,31.022 209.724 C 74.904 238.158,110.220 243.299,142.800 225.994 C 148.036 223.213,157.600 216.978,157.600 216.345 C 157.600 215.723,155.950 210.400,155.757 210.400 C 155.666 210.400,154.018 210.747,152.096 211.172 C 122.705 217.663,85.173 215.204,61.600 205.243 C 59.510 204.360,57.890 203.629,58.000 203.618 C 58.110 203.608,73.590 203.539,92.400 203.465 C 122.855 203.346,151.879 202.571,154.238 201.813 C 154.498 201.730,154.784 199.904,154.939 197.336 C 155.084 194.951,155.311 192.515,155.443 191.923 C 155.718 190.696,154.995 190.300,145.000 186.216 C 124.351 177.779,103.533 174.286,87.600 176.584 M238.696 223.200 L 237.271 225.600 240.936 227.965 C 276.124 250.677,306.362 284.916,320.775 318.367 C 322.649 322.716,322.589 323.237,320.498 320.776 C 295.155 290.962,254.207 248.989,234.087 232.203 L 232.775 231.108 230.687 233.080 C 229.539 234.165,228.115 235.370,227.522 235.758 L 226.444 236.463 228.976 240.132 C 239.149 254.867,245.012 270.072,246.795 286.341 C 247.244 290.431,247.278 290.526,249.580 294.002 C 267.502 321.067,288.144 334.375,322.200 340.820 C 336.156 343.462,344.672 345.344,348.513 346.638 C 350.728 347.384,352.595 347.938,352.664 347.869 C 352.949 347.585,350.253 333.250,348.588 326.200 C 338.771 284.617,321.485 256.118,295.811 239.190 C 291.139 236.109,287.906 234.501,285.800 234.210 C 275.093 232.731,263.592 229.385,248.558 223.375 C 240.468 220.141,240.511 220.142,238.696 223.200 M159.994 228.870 C 144.771 239.358,128.900 245.344,111.925 246.998 C 109.408 247.243,108.971 247.449,104.532 250.480 C 78.012 268.590,65.337 288.857,58.802 323.600 C 56.297 336.913,54.745 343.899,53.349 348.127 C 52.564 350.508,51.990 352.523,52.073 352.606 C 52.391 352.924,66.531 350.297,73.800 348.571 C 115.553 338.653,143.612 321.603,160.721 295.754 C 164.028 290.756,165.451 287.796,165.793 285.200 C 167.115 275.167,171.290 261.125,177.110 247.135 C 179.705 240.896,179.689 240.509,176.747 238.682 C 175.403 237.847,174.259 237.217,174.204 237.282 C 174.149 237.347,173.155 238.930,171.994 240.800 C 151.221 274.266,113.326 307.674,81.051 320.974 C 76.334 322.918,76.366 322.842,82.491 317.564 C 113.063 291.222,143.129 261.770,167.341 234.446 L 168.881 232.708 166.905 230.654 C 165.819 229.524,164.583 228.135,164.159 227.566 L 163.388 226.531 159.994 228.870 M213.133 243.140 C 210.173 244.001,210.287 243.719,211.205 247.928 C 217.328 275.980,215.469 311.080,206.604 334.800 C 204.629 340.085,203.968 341.600,203.636 341.600 C 203.506 341.600,203.395 326.525,203.389 308.100 C 203.380 277.838,202.633 248.323,201.813 245.762 C 201.734 245.516,200.127 245.214,198.137 245.071 C 196.191 244.932,193.755 244.701,192.723 244.558 L 190.846 244.298 189.397 247.435 C 175.726 277.032,172.419 304.008,179.816 325.602 C 183.104 335.203,187.610 342.990,199.604 359.800 C 201.802 362.880,204.427 366.795,205.438 368.500 C 207.755 372.409,207.284 372.619,211.710 365.700 C 240.988 319.928,243.632 282.340,220.044 247.200 C 216.634 242.121,216.634 242.121,213.133 243.140 " stroke="none" fill="#ffffff" fill-rule="evenodd"></path>
  </g>
</svg>
